<?xml version="1.0" encoding="UTF-8"?>
<svg width="82px" height="128px" viewBox="0 0 82 128" version="1.1" xmlns="http://www.w3.org/2000/svg" xmlns:xlink="http://www.w3.org/1999/xlink">
    <!-- Generator: Sketch 52.3 (67297) - http://www.bohemiancoding.com/sketch -->
    <title>Group 15</title>
    <desc>Created with Sketch.</desc>
    <g id="Page-1" stroke="none" stroke-width="1" fill="none" fill-rule="evenodd">
        <g id="Group-15">
            <ellipse id="Oval" fill="#FFFFFF" fill-rule="nonzero" cx="40.5" cy="42.5" rx="40.5" ry="42.5"></ellipse>
            <ellipse id="Oval" stroke="#009D98" fill-rule="nonzero" cx="42" cy="46.5" rx="39" ry="42.5"></ellipse>
            <path d="M23.32,26.994 L37.84,26.994 L37.84,37.554 L23.32,37.554 L23.32,26.994 Z M35.574,35.376 L35.574,29.194 L25.586,29.194 L25.586,35.376 L35.574,35.376 Z M34.98,38.346 C37.312,40.898 39.116,43.142 40.37,45.056 L38.39,46.442 C37.114,44.352 35.354,42.042 33.11,39.512 L34.98,38.346 Z M26.224,38.39 L28.248,39.358 C26.752,42.086 24.97,44.462 22.924,46.486 L20.878,44.99 C22.946,43.164 24.728,40.964 26.224,38.39 Z M52.074,37.994 L52.074,39.468 C52.074,39.556 52.052,39.622 52.052,39.71 L60.06,39.71 L60.06,37.994 L52.074,37.994 Z M60.06,36.036 L60.06,34.254 L52.074,34.254 L52.074,36.036 L60.06,36.036 Z M51.854,41.69 C51.502,43.516 50.71,45.056 49.522,46.332 L47.872,44.814 C49.214,43.45 49.896,41.734 49.94,39.622 L49.94,35.486 C48.84,36.762 47.63,37.928 46.31,39.006 L44.814,37.048 C47.3,35.09 49.258,32.846 50.71,30.338 L45.408,30.338 L45.408,28.116 L51.81,28.116 C52.14,27.346 52.426,26.576 52.668,25.784 L55.022,26.07 C54.802,26.774 54.582,27.456 54.34,28.116 L64.834,28.116 L64.834,30.338 L53.35,30.338 C52.998,30.998 52.646,31.658 52.272,32.274 L62.238,32.274 L62.238,44.11 C62.238,45.474 61.468,46.156 59.928,46.156 L57.706,46.156 L57.156,44.088 C57.904,44.154 58.608,44.198 59.268,44.198 C59.796,44.198 60.06,43.912 60.06,43.34 L60.06,41.69 L51.854,41.69 Z M30.58,53.984 C32.252,53.984 33.594,54.424 34.606,55.326 C35.486,56.118 35.948,57.108 35.948,58.296 C35.948,59.088 35.772,59.77 35.42,60.32 C35.024,60.892 34.452,61.354 33.682,61.662 L33.682,61.706 C34.408,61.904 35.046,62.344 35.574,63.026 C36.168,63.774 36.476,64.632 36.476,65.6 C36.476,67.008 35.948,68.13 34.936,69.01 C33.902,69.868 32.45,70.308 30.58,70.308 C28.688,70.308 27.236,69.868 26.224,69.01 C25.19,68.13 24.684,67.008 24.684,65.6 C24.684,64.632 24.97,63.774 25.586,63.026 C26.114,62.344 26.73,61.904 27.478,61.706 L27.478,61.662 C26.686,61.354 26.114,60.892 25.74,60.32 C25.388,59.77 25.212,59.088 25.212,58.296 C25.212,57.108 25.652,56.118 26.554,55.326 C27.544,54.424 28.886,53.984 30.58,53.984 Z M30.58,56.03 C29.656,56.03 28.908,56.272 28.358,56.778 C27.874,57.218 27.632,57.746 27.632,58.384 C27.632,59.11 27.83,59.682 28.226,60.1 C28.71,60.606 29.48,60.87 30.58,60.87 C31.658,60.87 32.45,60.606 32.934,60.1 C33.33,59.682 33.528,59.11 33.528,58.384 C33.528,57.746 33.286,57.218 32.802,56.778 C32.23,56.272 31.504,56.03 30.58,56.03 Z M30.58,62.784 C29.48,62.784 28.644,63.048 28.072,63.576 C27.5,64.082 27.236,64.764 27.236,65.6 C27.236,66.392 27.522,67.03 28.116,67.514 C28.688,67.998 29.502,68.24 30.58,68.24 C31.636,68.24 32.472,67.976 33.088,67.492 C33.638,67.008 33.924,66.392 33.924,65.6 C33.924,64.764 33.638,64.082 33.11,63.598 C32.516,63.048 31.68,62.784 30.58,62.784 Z M41.228,59.462 L48.994,59.462 C49.214,58.142 49.368,56.712 49.478,55.128 L41.822,55.128 L41.822,52.928 L59.378,52.928 L59.378,55.128 L51.81,55.128 C51.678,56.734 51.524,58.186 51.326,59.462 L60.038,59.462 L60.038,61.684 L52.338,61.684 C53.878,65.512 56.694,68.46 60.786,70.55 L59.334,72.442 C55.132,70.132 52.228,66.92 50.6,62.784 C50.248,63.884 49.874,64.83 49.434,65.622 C47.96,68.24 45.452,70.506 41.932,72.442 L40.458,70.55 C43.67,68.9 45.936,66.942 47.278,64.698 C47.762,63.884 48.158,62.872 48.488,61.684 L41.228,61.684 L41.228,59.462 Z" id="只有8天" fill="#009D98"></path>
            <path d="M39.3333333,81 C38,102.624879 40.6666667,117.333282 47.3333333,125.125208" id="Path-7" stroke="#FFFFFF" fill-rule="nonzero"></path>
            <polygon id="Path-8" stroke="#009D98" fill-rule="nonzero" points="40 84 34 93.5 47 93.5"></polygon>
            <path d="M40.3333333,83 C39,104.624879 41.6666667,119.333282 48.3333333,127.125208" id="Path-7-Copy" stroke="#009D98" fill-rule="nonzero"></path>
            <polygon id="Path-8" fill="#FFFFFF" fill-rule="nonzero" points="41.5384615 82 36 92.5 48 92.5"></polygon>
        </g>
    </g>
</svg>