<?xml version="1.0" encoding="UTF-8" standalone="no"?>
<svg width="33px" height="33px" viewBox="0 0 33 33" version="1.1" xmlns="http://www.w3.org/2000/svg" xmlns:xlink="http://www.w3.org/1999/xlink">
    <!-- Generator: Sketch 50 (54983) - http://www.bohemiancoding.com/sketch -->
    <title>notepad (1)</title>
    <desc>Created with Sketch.</desc>
    <defs></defs>
    <g id="web" stroke="none" stroke-width="1" fill="none" fill-rule="evenodd">
        <g id="notepad-(1)" fill-rule="nonzero">
            <g id="Group">
                <polygon id="Shape" fill="#A8871A" points="19.166 0 16.8326667 0 16.8326667 1.76785714 11.5826667 1.76785714 11.5826667 0 9.24933333 0 0.499333333 0 0.499333333 33 27.916 33 27.916 0"></polygon>
                <polygon id="Shape" fill="#EEEEEE" points="20.916 1.76785714 20.916 3.53571429 7.49933333 3.53571429 7.49933333 1.76785714 2.24933333 1.76785714 2.24933333 31.2321429 26.166 31.2321429 26.166 1.76785714"></polygon>
                <polygon id="Shape" fill="#80660D" points="16.8326667 0 16.8326667 1.76785714 11.5826667 1.76785714 11.5826667 0 7.49933333 0 7.49933333 3.53571429 20.916 3.53571429 20.916 0"></polygon>
                <path d="M13.3326667,8.25 L5.74933333,8.25 C5.42675,8.25 5.166,7.98658929 5.166,7.66071429 C5.166,7.33483929 5.42675,7.07142857 5.74933333,7.07142857 L13.3326667,7.07142857 C13.65525,7.07142857 13.916,7.33483929 13.916,7.66071429 C13.916,7.98658929 13.65525,8.25 13.3326667,8.25 Z" id="Shape" fill="#BDBDBD"></path>
                <path d="M13.3326667,26.5178571 L5.74933333,26.5178571 C5.42675,26.5178571 5.166,26.2544464 5.166,25.9285714 C5.166,25.6026964 5.42675,25.3392857 5.74933333,25.3392857 L13.3326667,25.3392857 C13.65525,25.3392857 13.916,25.6026964 13.916,25.9285714 C13.916,26.2544464 13.65525,26.5178571 13.3326667,26.5178571 Z" id="Shape" fill="#BDBDBD"></path>
                <path d="M22.666,11.7857143 L5.74933333,11.7857143 C5.42675,11.7857143 5.166,11.5223036 5.166,11.1964286 C5.166,10.8705536 5.42675,10.6071429 5.74933333,10.6071429 L22.666,10.6071429 C22.9885833,10.6071429 23.2493333,10.8705536 23.2493333,11.1964286 C23.2493333,11.5223036 22.9885833,11.7857143 22.666,11.7857143 Z" id="Shape" fill="#BDBDBD"></path>
                <path d="M22.666,18.8571429 L5.74933333,18.8571429 C5.42675,18.8571429 5.166,18.5937321 5.166,18.2678571 C5.166,17.9419821 5.42675,17.6785714 5.74933333,17.6785714 L22.666,17.6785714 C22.9885833,17.6785714 23.2493333,17.9419821 23.2493333,18.2678571 C23.2493333,18.5937321 22.9885833,18.8571429 22.666,18.8571429 Z" id="Shape" fill="#BDBDBD"></path>
                <path d="M22.666,22.9821429 L5.74933333,22.9821429 C5.42675,22.9821429 5.166,22.7187321 5.166,22.3928571 C5.166,22.0669821 5.42675,21.8035714 5.74933333,21.8035714 L22.666,21.8035714 C22.9885833,21.8035714 23.2493333,22.0669821 23.2493333,22.3928571 C23.2493333,22.7187321 22.9885833,22.9821429 22.666,22.9821429 Z" id="Shape" fill="#BDBDBD"></path>
                <path d="M13.916,15.3214286 L5.74933333,15.3214286 C5.42675,15.3214286 5.166,15.0580179 5.166,14.7321429 C5.166,14.4062679 5.42675,14.1428571 5.74933333,14.1428571 L13.916,14.1428571 C14.2385833,14.1428571 14.4993333,14.4062679 14.4993333,14.7321429 C14.4993333,15.0580179 14.2385833,15.3214286 13.916,15.3214286 Z" id="Shape" fill="#BDBDBD"></path>
                <path d="M22.666,15.3214286 L18.5826667,15.3214286 C18.2600833,15.3214286 17.9993333,15.0580179 17.9993333,14.7321429 C17.9993333,14.4062679 18.2600833,14.1428571 18.5826667,14.1428571 L22.666,14.1428571 C22.9885833,14.1428571 23.2493333,14.4062679 23.2493333,14.7321429 C23.2493333,15.0580179 22.9885833,15.3214286 22.666,15.3214286 Z" id="Shape" fill="#BDBDBD"></path>
                <path d="M16.2493333,15.3214286 C16.09125,15.3214286 15.9454167,15.2619107 15.8351667,15.1505357 C15.7295833,15.0385714 15.666,14.8853571 15.666,14.7321429 C15.666,14.5724464 15.7243333,14.425125 15.8351667,14.31375 C16.0568333,14.0898214 16.4418333,14.0957143 16.6635,14.31375 C16.77375,14.425125 16.8326667,14.5724464 16.8326667,14.7321429 C16.8326667,14.89125 16.7685,15.0385714 16.6635,15.1505357 C16.5520833,15.2566071 16.40625,15.3214286 16.2493333,15.3214286 Z" id="Shape" fill="#BDBDBD"></path>
            </g>
            <g id="Group" transform="translate(20.000000, 17.000000)">
                <polygon id="Shape" fill="#EDDCC7" points="2.2586087 7.34782609 2.25408696 7.35178261 1.13043478 11.4722174 3.757 8.84565217"></polygon>
                <rect id="Rectangle-path" fill="#FEA628" transform="translate(7.393189, 5.132319) rotate(45.000000) translate(-7.393189, -5.132319) " x="5.23518864" y="0.0321238334" width="4.316" height="10.2003905"></rect>
                <polygon id="Shape" fill="#D6C4B1" points="5.52669565 10.1818261 5.53121739 10.1773043 3.83217391 8.47826087 1.2056087 11.1048261 1.13043478 11.3806522"></polygon>
                <path d="M0.565358696,12.5519239 C0.420663043,12.5519239 0.275967391,12.4965326 0.16575,12.3863152 C-0.05525,12.1653152 -0.05525,11.8080978 0.16575,11.5870978 L1.41318478,10.339663 C1.63418478,10.118663 1.99140217,10.118663 2.21240217,10.339663 C2.43340217,10.560663 2.43340217,10.9178804 2.21240217,11.1388804 L0.964967391,12.3863152 C0.85475,12.4970978 0.710054348,12.5519239 0.565358696,12.5519239 Z" id="Shape" fill="#5E5E5E"></path>
            </g>
        </g>
    </g>
</svg>