<?xml version="1.0" encoding="UTF-8"?>
<svg width="29px" height="24px" viewBox="0 0 29 24" version="1.1" xmlns="http://www.w3.org/2000/svg" xmlns:xlink="http://www.w3.org/1999/xlink">
    <!-- Generator: Sketch 52.3 (67297) - http://www.bohemiancoding.com/sketch -->
    <title>27825</title>
    <desc>Created with Sketch.</desc>
    <g id="Page-1" stroke="none" stroke-width="1" fill="none" fill-rule="evenodd">
        <g id="27825" fill="#FFFFFF" fill-rule="nonzero">
            <path d="M26.4124679,8.47058824 C25.5541377,8.47058824 24.8571429,9.18354029 24.8571429,10.0589867 C24.8571429,10.9350857 25.5541377,11.6470588 26.4124679,11.6470588 C27.2679286,11.6470588 27.9642857,10.9347594 27.9642857,10.0589867 C27.9642857,9.18354029 27.2676098,8.47058824 26.4124679,8.47058824 Z M2.5905607,8.47058824 C1.73249458,8.47058824 1.03571429,9.18354029 1.03571429,10.0589867 C1.03571429,10.9350857 1.73249458,11.6470588 2.5905607,11.6470588 C3.4463956,11.6470588 4.14285714,10.9347594 4.14285714,10.0589867 C4.14285714,9.18354029 3.4463956,8.47058824 2.5905607,8.47058824 Z M21.2301771,5.29411765 C19.8015933,5.29411765 18.6428571,6.48187703 18.6428571,7.94373472 C18.6428571,9.4026687 19.8015933,10.5882353 21.2301771,10.5882353 C22.6591182,10.5882353 23.8214286,9.4026687 23.8214286,7.94373472 C23.8214286,6.48333888 22.6591182,5.29411765 21.2301771,5.29411765 Z M29,20.1176471 L26.4986485,20.1176471 L26.4986485,15.1575339 C26.4986485,14.3053817 26.2662113,13.5142842 25.8928571,12.8244001 C26.1128694,12.7551831 26.3386396,12.7058824 26.5771377,12.7058824 C27.9108484,12.7058824 29,13.8793057 29,15.3198019 L29,20.1176471 Z M7.77018065,5.29411765 C6.34032729,5.29411765 5.17857143,6.48187703 5.17857143,7.94373472 C5.17857143,9.4026687 6.34032729,10.5882353 7.77018065,10.5882353 C9.195387,10.5882353 10.3571429,9.4026687 10.3571429,7.94373472 C10.3571429,6.48333888 9.19574446,5.29411765 7.77018065,5.29411765 Z M2.42541966,12.7058824 C2.66387128,12.7058824 2.88656753,12.7548566 3.10714286,12.8244001 C2.72992269,13.5142842 2.50146967,14.3053817 2.50146967,15.1575339 L2.50146967,20.1176471 L0,20.1176471 L0,15.3198019 C0,13.8789792 1.08954517,12.7058824 2.42541966,12.7058824 Z M13.9809579,0 C11.9846452,0 10.3571429,1.66208659 10.3571429,3.70501758 C10.3571429,5.74760267 11.9829535,7.41176471 13.9809579,7.41176471 C15.9793008,7.41176471 17.6071415,5.74760267 17.6071415,3.70501758 C17.6088333,1.66174068 15.9793008,0 13.9809579,0 Z M25.1090734,21.9882353 L20.6964699,21.9882353 L20.6964699,14.4401379 C20.6964699,13.40205 20.4036921,12.4364552 19.9305019,11.5707833 C20.2916759,11.4708604 20.6713447,11.4 21.0688106,11.4 C23.2951775,11.4 25.1090734,13.0941176 25.1090734,15.1810694 L25.1090734,21.9882353 Z M7.51713467,14.4401379 L7.51713467,21.9882353 L3.10714286,21.9882353 L3.10714286,15.1810694 C3.10714286,13.0960769 4.91981745,11.4 7.15117763,11.4 C7.54891147,11.4 7.92499518,11.4708604 8.28571429,11.5707833 C7.81185579,12.4364552 7.51713467,13.40205 7.51713467,14.4401379 Z M8.62162162,24 L20.0144788,24 L20.0144788,13.8423008 C20.0144788,10.6851873 17.4580543,8.11764706 14.317372,8.11764706 C11.1743161,8.11764706 8.62162162,10.6851873 8.62162162,13.8423008 L8.62162162,24 Z" id="Shape"></path>
        </g>
    </g>
</svg>