<?xml version="1.0" encoding="UTF-8"?>
<svg width="18px" height="28px" viewBox="0 0 18 28" version="1.1" xmlns="http://www.w3.org/2000/svg" xmlns:xlink="http://www.w3.org/1999/xlink">
    <!-- Generator: Sketch 52.3 (67297) - http://www.bohemiancoding.com/sketch -->
    <title>Group 18</title>
    <desc>Created with Sketch.</desc>
    <g id="Page-1" stroke="none" stroke-width="1" fill="none" fill-rule="evenodd">
        <g id="Group-18">
            <polygon id="Path" fill="#57565C" points="8 17 10 17 10 28 8 28"></polygon>
            <path d="M18,9 C18,13.9707643 13.9707641,18 9,18 C4.02923587,18 0,13.9707643 0,9 C0,4.02923587 4.02923587,0 9,0 C13.9707641,0 18,4.02923587 18,9 Z" id="Path" fill="#FF7043"></path>
            <path d="M9,13.6 C4.90869141,13.5849611 1.3425293,10.8736329 0.319702219,7 C0.117004359,7.71704105 0.00933834375,8.45610355 0,9.2 C0,14.0603028 4.02923587,18 9,18 C13.9707641,18 18,14.0603028 18,9.2 C17.9906617,8.45610355 17.8829956,7.71704105 17.6802978,7 C16.6574707,10.8736329 13.0913086,13.5849611 9,13.6 Z" id="Path" fill="#F4511E"></path>
        </g>
        <circle id="Oval" fill="#FFFFFF" fill-rule="nonzero" opacity="0.696358817" cx="13.5" cy="6.5" r="1.5"></circle>
    </g>
</svg>