<?xml version="1.0" encoding="UTF-8"?>
<svg width="265px" height="169px" viewBox="0 0 265 169" version="1.1" xmlns="http://www.w3.org/2000/svg" xmlns:xlink="http://www.w3.org/1999/xlink">
    <!-- Generator: Sketch 52.3 (67297) - http://www.bohemiancoding.com/sketch -->
    <title>Group 23 Copy</title>
    <desc>Created with Sketch.</desc>
    <defs>
        <polygon id="path-1" points="0.168382789 0.144465171 158.534494 0.144465171 158.534494 37.7847179 0.168382789 37.7847179"></polygon>
    </defs>
    <g id="Page-1" stroke="none" stroke-width="1" fill="none" fill-rule="evenodd" opacity="0.25453404">
        <g id="Group-23-Copy" transform="translate(101.500000, 63.500000) scale(1, -1) translate(-101.500000, -63.500000) translate(-63.000000, -41.000000)">
            <g id="Group-9" transform="translate(0.000000, 6.000000)" fill="#A5A5A5">
                <path d="M187.848701,120.284729 C188.416602,115.971684 188.288367,111.72053 187.457244,107.285637 C186.719647,103.355544 185.445967,99.3877362 183.561961,95.1539895 C180.074525,87.318947 175.088755,79.952924 170.266895,72.8305977 C169.275719,71.3674504 168.251761,69.8559506 167.27119,68.3821658 C158.173196,54.7129081 148.519835,36.8215084 154.678047,19.6418577 C156.402964,14.8278807 159.463268,10.8165556 163.773149,7.72102723 C164.297662,7.34291052 164.84628,6.98413482 165.406468,6.63406256 C165.58002,6.52478587 165.759358,6.42227852 165.935802,6.31590298 C166.341722,6.07317332 166.75439,5.83721302 167.177665,5.60995617 C167.378214,5.50164653 167.579728,5.39333688 167.782205,5.28889543 C168.241155,5.05390218 168.709746,4.82664534 169.187979,4.60809194 C169.348996,4.53362906 169.506158,4.45529798 169.669104,4.38276919 C170.309319,4.09942342 170.964961,3.82961636 171.638922,3.57431505 C171.78837,3.51725907 171.943602,3.46697245 172.094014,3.41185058 C172.630098,3.21553934 173.173895,3.02696451 173.729262,2.84806018 C173.968379,2.7716632 174.209423,2.69913442 174.451432,2.62563859 C174.951841,2.47381167 175.459964,2.32972116 175.976764,2.1924 C176.222629,2.12567352 176.467531,2.05894704 176.718217,1.99705582 C176.872486,1.95740675 177.034468,1.92452703 177.189701,1.88681207 L177.296725,1.87424041 L177.26105,1.87133926 C177.626474,1.78333767 177.99479,1.69727019 178.368892,1.61603795 C178.634041,1.55898198 178.896298,1.49709075 179.166268,1.44196888 C179.968465,1.28047146 180.784161,1.13057864 181.61914,0.999059786 L181.625889,0.998092735 C181.628781,0.998092735 181.631674,0.997125685 181.634567,0.997125685 C182.275746,0.908157046 182.821471,0.830793013 183.295847,0.762132434 C183.370089,0.751494879 183.446259,0.740857324 183.51568,0.73021977 C183.558104,0.724417467 183.596671,0.718615165 183.638131,0.712812862 C183.781793,0.692504803 183.915814,0.672196745 184.039229,0.654789837 C184.046943,0.653822787 184.052728,0.652855736 184.060441,0.650921636 C184.681373,0.560018896 185.052581,0.501995871 185.266629,0.464280905 C185.276271,0.462346804 185.290734,0.460412703 185.299411,0.458478603 C187.964402,0.296981183 190.136698,0.190605637 190.158874,0.189638587 L190.158874,0.147088368 C173.518107,0.566788249 156.595799,2.04540834 140.229823,3.4756759 C137.705602,3.69519635 135.09557,3.9243873 132.530853,4.14390774 L131.884853,4.19999667 C126.756384,4.6380705 121.453399,5.0925842 116.374104,6.35651909 C115.049322,6.68628329 113.788176,7.08083986 112.560776,7.50537499 C112.54342,7.51214434 112.527029,7.51794665 112.509674,7.5227819 C111.682408,7.80999587 110.878283,8.11848495 110.098262,8.44824915 C110.051981,8.4666231 110.006665,8.48789821 109.961349,8.50627217 C109.189041,8.83603636 108.442767,9.18417451 107.720596,9.55358777 C107.65214,9.58840159 107.585611,9.6232154 107.519083,9.65802922 C107.160408,9.84466995 106.790164,10.018739 106.444987,10.2140832 C103.162922,12.0766223 100.449722,14.3946422 98.3805934,17.1043174 C97.6825278,18.017213 97.0654531,18.9658895 96.4879099,19.9310058 C96.4744113,19.9522809 96.461877,19.973556 96.4493427,19.9948311 C96.0868113,20.6031058 95.7493487,21.2210511 95.4369546,21.8467327 C95.4205636,21.8805794 95.4022442,21.9153933 95.3858531,21.9502071 C95.0763516,22.5749216 94.7938472,23.2054385 94.5354472,23.8456259 C94.5277337,23.8630328 94.5209845,23.8804397 94.5142352,23.8968796 C94.3859994,24.213105 94.2452293,24.5264294 94.1295278,24.8465231 C93.2106651,27.4034044 92.6630113,30.1411241 92.5019934,32.9823182 C92.3515815,35.625267 92.5338113,38.4345485 93.0390412,41.3327986 C93.5047397,43.9970225 94.2606561,46.8179085 95.2846143,49.7171257 C99.2097875,60.8391725 106.392922,71.4689907 112.16257,80.00998 L112.225241,80.1008827 C116.08485,85.8142166 120.46608,92.5062055 123.60834,99.6256306 C127.007071,107.328187 128.487086,114.487261 128.129376,121.511916 C127.768773,128.633275 125.420032,135.008071 121.34059,139.949699 C121.20657,139.938094 121.071584,139.92649 120.938528,139.913918 C120.668558,139.888775 103.689364,149.485783 103.689364,149.485783 C102.007835,149.748821 101.992408,149.810712 101.997229,149.851328 C101.999158,149.8639 102.001086,149.879373 102.058937,149.89001 C102.337584,149.944165 103.911125,149.910318 112.963802,149.113469 C114.203737,149.039006 115.338576,148.968411 116.435811,148.895882 C120.263602,148.642515 124.185883,148.419126 127.977999,148.202507 C137.614005,147.651288 147.576868,147.082663 157.272653,145.976357 L157.272653,145.977324 C161.089838,145.701715 161.093695,145.601142 161.095623,145.546987 C161.095623,145.528613 161.077304,145.516041 161.047414,145.504437 C161.32799,145.468656 161.608567,145.432875 161.888179,145.398061 C162.536107,145.316829 163.205247,145.232695 163.859925,145.137924 C168.453274,144.48033 172.257925,143.16224 175.494674,141.114995 C178.979217,138.909153 181.834152,135.880351 183.978486,132.115624 C185.972408,128.615868 187.27405,124.635489 187.848701,120.284729" id="Fill-1"></path>
                <path d="M181.635145,0.995675109 C175.223354,2.00430869 168.865557,4.06122493 163.773727,7.72054371 C197.387903,14.363213 229.335014,29.7093361 262.567375,37.6362484 C264.805235,38.1690931 269.512357,37.3238911 271.364545,37.2088121 C278.436799,36.7697712 285.50616,36.2717402 292.572629,35.7524341 C299.640061,35.2350622 306.70653,34.7167231 313.767214,34.1210201 C316.197909,33.9160054 320.252282,32.7255663 322.53353,33.2690487 C278.565035,22.7823539 236.44487,-0.983877094 190.171023,0.18625391" id="Fill-3"></path>
                <path d="M108.987528,139.992152 C107.722525,140.06178 106.457522,140.145913 105.192519,140.220376 C91.0499397,141.049139 76.9160382,142.121597 62.7994919,143.286893 C55.4765516,143.731736 52.5271278,143.997675 53.9637546,144.081809 C48.8921725,144.635929 43.8948322,145.47146 39.0170501,147.240195 C16.5179307,155.400167 -0.453549851,177.829934 0.0092561194,202.113537 C-0.00231402985,201.484954 60.0043367,199.277178 59.9754113,197.747304 C59.5935964,177.722592 70.9853725,159.201642 87.4603009,148.666595 C94.0321457,144.463794 101.411973,141.532664 109.180364,140.287103 C108.979814,140.312246 108.783122,140.337389 108.566181,140.365434 C108.920999,140.313213 109.275817,140.260025 109.630635,140.207805 C109.480223,140.230047 109.330776,140.262927 109.180364,140.287103 C110.844537,140.073385 111.898384,139.921558 112.344799,139.830655 C111.226352,139.876106 110.107904,139.930261 108.987528,139.992152" id="Fill-5"></path>
                <path d="M121.354185,139.994957 C120.941517,139.959176 120.529812,139.917593 120.116179,139.889548 C117.514824,139.709677 114.923111,139.747392 112.328505,139.853768 C111.88209,139.943703 110.828242,140.09553 109.163105,140.309248 C101.395678,141.554809 94.015851,144.486906 87.4430421,148.68874 C93.0266033,149.406292 98.4665018,149.589064 103.994141,149.484623 C104.314248,149.43627 104.665209,149.384049 105.063415,149.326993 C111.921621,148.100773 117.430941,144.742207 121.354185,139.994957" id="Fill-7"></path>
            </g>
            <path d="M192.706567,120.330429 C193.270353,116.010463 193.143046,111.752487 192.317946,107.310477 C191.585694,103.374077 190.321243,99.3999022 188.450888,95.1593615 C184.988723,87.3117459 180.03908,79.9339024 175.25216,72.8001466 C174.268166,71.3346514 173.251628,69.8207261 172.278163,68.3445762 C163.246094,54.6533831 153.662682,36.7332725 159.776271,19.5260532 C161.488688,14.7043511 164.526817,10.6865888 168.805468,7.58609298 C169.326181,7.20736949 169.870824,6.84801805 170.426952,6.49738403 C170.599247,6.38793197 170.777285,6.28526013 170.952451,6.17871388 C171.355429,5.93559471 171.765108,5.69925576 172.185315,5.47163423 C172.384411,5.36315077 172.584464,5.25466732 172.785475,5.15005827 C173.241099,4.91468792 173.706294,4.68706639 174.181062,4.46816227 C174.340913,4.3935799 174.496935,4.31512311 174.658701,4.24247794 C175.294277,3.95867748 175.945168,3.68843745 176.614245,3.43272645 C176.76261,3.37557891 176.916718,3.32521159 177.06604,3.27000126 C177.598239,3.073375 178.138096,2.88449756 178.689439,2.70530614 C178.926822,2.62878656 179.166121,2.55614139 179.406376,2.48252762 C179.903159,2.33045706 180.407599,2.18613532 180.920655,2.0485938 C181.164739,1.98176025 181.407866,1.91492669 181.656736,1.85293614 C181.809886,1.81322345 181.970695,1.78029097 182.124803,1.74251548 L182.231051,1.72992365 L182.195635,1.72701785 C182.558411,1.63887504 182.924059,1.55266944 183.295449,1.47130685 C183.558677,1.41415931 183.819034,1.35216877 184.087048,1.29695844 C184.883432,1.13520186 185.693217,0.985068509 186.522145,0.8533386 L186.528846,0.852369998 C186.531717,0.852369998 186.534589,0.851401396 186.537461,0.851401396 C187.173994,0.762289987 187.715765,0.684801805 188.186703,0.616031044 C188.260407,0.605376419 188.336025,0.594721794 188.404943,0.584067169 C188.44706,0.578255555 188.485347,0.572443942 188.526507,0.566632328 C188.669128,0.546291681 188.802178,0.525951033 188.924699,0.508516192 C188.932356,0.50754759 188.938099,0.506578987 188.945757,0.504641783 C189.562189,0.413593169 189.930708,0.355477033 190.143205,0.317701545 C190.152777,0.31576434 190.167135,0.313827136 190.175749,0.311889931 C192.82143,0.150133352 194.977985,0.0435871022 195,0.0426184999 L195,0 C178.479813,0.420373385 161.680127,1.90136626 145.43274,3.33392901 C142.92681,3.55380173 140.33569,3.78336047 137.789557,4.00323318 L137.148238,4.05941212 C132.056931,4.49818894 126.792372,4.95343201 121.749882,6.21939518 C120.434699,6.54968855 119.182691,6.94487828 117.964185,7.37009468 C117.946956,7.37687489 117.930683,7.38268651 117.913454,7.38752952 C117.092183,7.67520439 116.293884,7.98418852 115.519515,8.31448189 C115.47357,8.33288533 115.428582,8.35419458 115.383594,8.37259803 C114.616883,8.7028914 113.876016,9.05158822 113.159078,9.42159428 C113.091118,9.45646397 113.025071,9.49133365 112.959025,9.52620333 C112.602949,9.71314357 112.235387,9.88749198 111.892713,10.0831496 C108.634429,11.9486776 105.940889,14.2704173 103.886754,16.9844408 C103.193746,17.8988014 102.581143,18.8490002 102.007785,19.8156652 C101.994384,19.8369745 101.981941,19.8582837 101.969497,19.879593 C101.609593,20.4888438 101.274575,21.1077807 100.964445,21.7344663 C100.948173,21.7683674 100.929986,21.8032371 100.913714,21.8381068 C100.606455,22.4638239 100.325998,23.0953525 100.06947,23.7365672 C100.061812,23.7540021 100.055112,23.7714369 100.048412,23.7879032 C99.9211051,24.1046361 99.781355,24.4184632 99.6664919,24.7390706 C98.7542874,27.300055 98.210602,30.042168 98.0507508,32.8879215 C97.9014288,35.5351115 98.0823382,38.3489011 98.5839071,41.2518021 C99.0462311,43.9203014 99.7966701,46.7457142 100.813209,49.6495838 C104.70994,60.7894785 111.841024,71.4363546 117.568864,79.9910499 L117.631082,80.0820985 C121.462724,85.8046007 125.812207,92.5073284 128.931697,99.6381784 C132.305801,107.353095 133.775092,114.523658 133.419973,121.559585 C133.061983,128.692372 130.730262,135.077398 126.680381,140.026956 C126.547331,140.015333 126.413324,140.003709 126.281231,139.991118 C126.013217,139.965934 109.157056,149.578343 109.157056,149.578343 C107.487712,149.841803 107.472397,149.903793 107.477183,149.944474 C107.479098,149.957066 107.481012,149.972564 107.538444,149.983219 C107.815072,150.03746 109.37721,150.003559 118.364291,149.205431 C119.595241,149.130849 120.721857,149.060141 121.811142,148.987495 C125.611196,148.733722 129.505056,148.509975 133.269694,148.293008 C142.835877,147.740904 152.726547,147.171366 162.352076,146.063285 L162.352076,146.064254 C166.141601,145.788202 166.14543,145.687467 166.147344,145.633226 C166.147344,145.614822 166.129158,145.60223 166.099485,145.590607 C166.378028,145.554769 166.656571,145.518931 166.934157,145.484061 C167.57739,145.402698 168.241682,145.31843 168.891616,145.223507 C173.451681,144.564857 177.228763,143.244653 180.442058,141.194122 C183.901352,138.98474 186.735599,135.951077 188.864396,132.180309 C190.84387,128.674937 192.13608,124.68817 192.706567,120.330429" id="Fill-10" fill="#FF574A"></path>
            <g id="Group-14" transform="translate(170.000000, 0.000000)">
                <mask id="mask-2" fill="white">
                    <use xlink:href="#path-1"></use>
                </mask>
                <g id="Clip-13"></g>
                <path d="M17.9855297,0.994984138 C11.5896308,2.00291776 5.24759211,4.05840655 0.168382789,7.71518586 C33.6992434,14.3532453 65.5671702,29.6887186 98.7171622,37.6101298 C100.949475,38.1426048 105.644931,37.2979893 107.492528,37.1829902 C114.547252,36.744254 121.599092,36.2465686 128.648045,35.7276229 C135.697961,35.21061 142.746915,34.6926307 149.790098,34.097341 C152.214769,33.8924686 156.259093,32.7028557 158.534686,33.2459609 C114.67517,22.7665436 72.6594046,-0.98319431 26.5002504,0.186124655" id="Fill-12" fill="#CE2119" mask="url(#mask-2)"></path>
            </g>
            <path d="M114.653032,140.160764 C113.391911,140.230075 112.13079,140.313827 110.86967,140.387951 C96.7704941,141.212949 82.6799695,142.280537 68.6067468,143.44054 C61.3062805,143.883363 58.3659084,144.148094 59.7981263,144.231845 C54.7421089,144.783448 49.7601054,145.615185 44.8972932,147.375887 C22.4672234,155.498797 5.54782819,177.82669 6.00921381,202 C5.99767917,201.374272 65.8201699,199.176524 65.7913333,197.653598 C65.4106901,177.719835 76.767505,159.283006 93.1918719,148.795808 C99.7435477,144.612095 107.100726,141.694278 114.845276,140.454375 C114.645342,140.479404 114.449253,140.504433 114.232979,140.53235 C114.586708,140.480366 114.940437,140.42742 115.294166,140.375437 C115.144215,140.397578 114.995226,140.430308 114.845276,140.454375 C116.504342,140.241627 117.554955,140.09049 118,140 C116.884985,140.045245 115.769969,140.099154 114.653032,140.160764" id="Fill-15" fill="#FF574A"></path>
            <path d="M128,140.236618 C127.58625,140.19991 127.173467,140.15725 126.75875,140.128479 C124.150579,139.943947 121.552074,139.982639 118.95067,140.091771 C118.503085,140.184037 117.446476,140.339797 115.776975,140.559053 C107.989196,141.836884 100.590032,144.844948 94,149.155646 C99.5981917,149.891788 105.052344,150.079296 110.594467,149.972149 C110.915413,149.922544 111.267294,149.86897 111.666543,149.810436 C118.54272,148.552446 124.066475,145.106864 128,140.236618" id="Fill-17" fill="#CE2119"></path>
        </g>
    </g>
</svg>