<?xml version="1.0" encoding="UTF-8"?>
<svg width="357px" height="315px" viewBox="0 0 357 315" version="1.1" xmlns="http://www.w3.org/2000/svg" xmlns:xlink="http://www.w3.org/1999/xlink">
    <!-- Generator: Sketch 52.3 (67297) - http://www.bohemiancoding.com/sketch -->
    <title>Group 23</title>
    <desc>Created with Sketch.</desc>
    <defs>
        <polygon id="path-1" points="0.256280723 0.220499471 241.291494 0.220499471 241.291494 57.6714116 0.256280723 57.6714116"></polygon>
    </defs>
    <g id="Page-1" stroke="none" stroke-width="1" fill="none" fill-rule="evenodd">
        <g id="Group-23">
            <g id="Group-9" transform="translate(0.000000, 9.000000)" fill="#A5A5A5">
                <path d="M284.971713,182.111142 C285.833236,175.581189 285.638699,169.144941 284.377863,162.43051 C283.258907,156.480347 281.326699,150.473084 278.468609,144.063189 C273.178072,132.200931 265.614519,121.048768 258.299624,110.265563 C256.795982,108.050357 255.242609,105.761945 253.755057,103.530634 C239.953146,82.8353713 225.308728,55.7477828 234.650907,29.7377828 C237.267654,22.4494191 241.910221,16.3762708 248.44843,11.6896392 C249.244131,11.1171703 250.0764,10.5739837 250.926221,10.0439742 C251.189504,9.87852919 251.461564,9.72333301 251.729236,9.56228038 C252.345027,9.19478756 252.971057,8.83754354 253.613176,8.49347656 C253.917415,8.32949569 254.223116,8.16551483 254.530281,8.00739043 C255.226519,7.65161053 255.937385,7.30754354 256.662878,6.97665359 C256.907146,6.86391675 257.145564,6.74532344 257.392758,6.63551483 C258.363982,6.20652919 259.358609,5.79804115 260.381027,5.41151483 C260.607743,5.32513206 260.843236,5.24899809 261.071415,5.16554354 C261.884669,4.86832823 262.709624,4.58282584 263.552131,4.31196459 C263.914878,4.19629952 264.280549,4.08649091 264.647684,3.97521818 C265.406818,3.74535215 266.177654,3.52719904 266.961654,3.31929474 C267.334639,3.21827081 267.706161,3.11724689 268.08646,3.02354354 C268.32049,2.96351483 268.566221,2.91373493 268.801713,2.85663445 L268.964072,2.83760096 L268.909952,2.83320861 C269.46431,2.69997416 270.023057,2.56966794 270.590579,2.4466823 C270.992818,2.36029952 271.390669,2.26659617 271.800221,2.18314163 C273.017176,1.93863445 274.254609,1.71169665 275.521296,1.51257703 L275.531534,1.51111292 C275.535922,1.51111292 275.54031,1.5096488 275.544699,1.5096488 C276.517385,1.37495024 277.345266,1.25782105 278.064907,1.1538689 C278.177534,1.13776364 278.293087,1.12165837 278.3984,1.10555311 C278.462758,1.09676842 278.521266,1.08798373 278.584161,1.07919904 C278.802101,1.04845263 279.005415,1.01770622 279.192639,0.991352153 C279.20434,0.989888038 279.213116,0.988423923 279.224818,0.985495694 C280.166788,0.8478689 280.729922,0.76002201 281.054639,0.702921531 C281.069266,0.699993301 281.091206,0.697065072 281.10437,0.694136842 C285.147236,0.449629665 288.442669,0.288577033 288.47631,0.287112919 L288.47631,0.222691866 C263.231803,0.858117703 237.560191,3.09674928 212.732549,5.26217512 C208.903236,5.59452919 204.943743,5.9415244 201.052997,6.27387847 L200.072997,6.35879713 C192.292967,7.02204115 184.248191,7.71017512 176.542758,9.62377321 C174.533027,10.1230364 172.619833,10.7203952 170.757833,11.3631416 C170.731504,11.3733904 170.706639,11.3821751 170.68031,11.3894957 C169.425325,11.8243378 168.205445,12.2913904 167.022131,12.7906536 C166.951922,12.8184718 166.883176,12.8506823 166.81443,12.8785005 C165.642818,13.3777636 164.510699,13.904845 163.415146,14.4641368 C163.311296,14.516845 163.21037,14.5695531 163.109445,14.6222612 C162.565325,14.9048354 162.003654,15.1683761 161.480012,15.4641273 C156.501027,18.2840124 152.385027,21.7934957 149.246101,25.8959455 C148.187116,27.2780699 147.250997,28.7143665 146.374848,30.1755531 C146.35437,30.2077636 146.335355,30.2399742 146.31634,30.2721847 C145.76637,31.1931129 145.25443,32.1286823 144.780519,33.0759646 C144.755654,33.1272086 144.727863,33.1799167 144.702997,33.2326249 C144.233475,34.1784431 143.804907,35.1330459 143.412907,36.10229 C143.401206,36.128644 143.390967,36.1549981 143.380728,36.179888 C143.186191,36.6586536 142.972639,37.1330268 142.797116,37.6176488 C141.403176,41.4887684 140.57237,45.6336775 140.328101,49.9352469 C140.099922,53.9366727 140.37637,58.1899263 141.142818,62.5778785 C141.849296,66.6115148 142.996042,70.8823378 144.549415,75.2717541 C150.504012,92.1105388 161.401027,108.204089 170.153743,121.135151 L170.248818,121.272778 C176.103952,129.922768 182.7504,140.054443 187.517296,150.833256 C192.673266,162.494931 194.91849,173.333773 194.375833,183.969103 C193.828788,194.750845 190.265684,204.40229 184.077057,211.883917 C183.873743,211.866347 183.668967,211.848778 183.467116,211.829744 C183.057564,211.791678 157.299654,226.321553 157.299654,226.321553 C154.748728,226.719792 154.725325,226.813496 154.732639,226.874989 C154.735564,226.894022 154.73849,226.917448 154.826251,226.933553 C155.248967,227.015544 157.636072,226.9643 171.369236,225.757869 C173.250251,225.645132 174.971833,225.538252 176.63637,225.428443 C182.443236,225.044845 188.393445,224.706634 194.146191,224.378673 C208.764281,223.544127 223.878221,222.683228 238.586997,221.00828 L238.586997,221.009744 C244.377773,220.592472 244.383624,220.440204 244.386549,220.358213 C244.386549,220.330395 244.358758,220.311362 244.313415,220.293792 C244.739057,220.23962 245.164699,220.185448 245.588878,220.13274 C246.571803,220.009754 247.586907,219.882376 248.580072,219.738893 C255.54831,218.743295 261.320072,216.747706 266.23031,213.648175 C271.51646,210.308529 275.847475,205.722922 279.10049,200.023122 C282.125325,194.724491 284.099952,188.698194 284.971713,182.111142" id="Fill-1" opacity="0.231515067"></path>
                <path d="M275.545576,1.50745263 C265.81871,3.0345244 256.173755,6.14869665 248.449307,11.6889072 C299.442949,21.745912 347.907606,44.9799502 398.322024,56.9812995 C401.716919,57.7880268 408.857755,56.5083904 411.667576,56.3341608 C422.396382,55.6694526 433.1208,54.9154335 443.84083,54.1292038 C454.562322,53.3459024 465.282352,52.5611368 475.993606,51.6592421 C479.681039,51.3488498 485.831636,49.5465244 489.292352,50.3693569 C422.590919,34.4924957 358.693457,-1.48959043 288.49474,0.281988517" id="Fill-3" opacity="0.23172433"></path>
                <path d="M165.337116,211.948191 C163.418072,212.053608 161.499027,212.180986 159.579982,212.293722 C138.125296,213.548469 116.683773,215.172172 95.2685791,216.936431 C84.1594746,217.609923 79.6851164,218.012555 81.8645194,218.139933 C74.1707881,218.978871 66.5896836,220.243866 59.1899522,222.921732 C25.0581612,235.275933 -0.688047761,269.234612 0.014041791,306 C-0.00351044776,305.048325 91.0282507,301.705751 90.9843701,299.389522 C90.4051463,269.072096 107.686788,241.031368 132.679713,225.081301 C142.649385,218.718258 153.844788,214.280526 165.629654,212.394746 C165.325415,212.432813 165.027027,212.47088 164.697922,212.51334 C165.236191,212.434278 165.77446,212.353751 166.312728,212.274689 C166.084549,212.308364 165.857833,212.358144 165.629654,212.394746 C168.154251,212.071177 169.752967,211.841311 170.430191,211.703684 C168.733475,211.772498 167.036758,211.854488 165.337116,211.948191" id="Fill-5" opacity="0.231515067"></path>
                <path d="M184.097681,211.952437 C183.471651,211.898265 182.847084,211.835308 182.219591,211.792849 C178.273263,211.520523 174.341561,211.577624 170.405472,211.738677 C169.728248,211.874839 168.129531,212.104705 165.603472,212.428275 C153.820069,214.314055 142.624666,218.753251 132.653531,225.11483 C141.123949,226.201203 149.376427,226.477921 157.762009,226.319796 C158.247621,226.24659 158.780039,226.167528 159.384128,226.081145 C169.788218,224.224648 178.146009,219.139777 184.097681,211.952437" id="Fill-7" opacity="0.231259301"></path>
            </g>
            <path d="M293.500741,182.100049 C294.360951,175.5625 294.16671,169.118764 292.907795,162.396522 C291.790544,156.439437 289.861278,150.425185 287.007541,144.007834 C281.725062,132.131775 274.17303,120.966639 266.869275,110.170889 C265.367924,107.953106 263.816916,105.662032 262.33163,103.428125 C248.550741,82.7087864 233.928628,55.5896857 243.256578,29.5494271 C245.869339,22.2525846 250.504835,16.1723711 257.033086,11.4802874 C257.827575,10.9071525 258.658576,10.363334 259.507103,9.83270783 C259.769985,9.66707039 260.041631,9.51169367 260.308895,9.35045368 C260.923748,8.98253333 261.548824,8.62487372 262.189965,8.28040646 C262.493741,8.11623483 262.798977,7.95206321 263.105673,7.79375485 C263.800851,7.43756105 264.510634,7.0930938 265.235022,6.76181891 C265.478919,6.64895091 265.716973,6.53021965 265.963791,6.42028329 C266.933535,5.99079859 267.926647,5.58183533 268.947508,5.19485936 C269.173879,5.10837609 269.409013,5.03215355 269.636845,4.94860191 C270.44886,4.65104084 271.272558,4.36520631 272.113783,4.09402996 C272.475976,3.97823033 272.841091,3.86829397 273.207666,3.7568918 C273.965644,3.52675835 274.735306,3.30835146 275.518112,3.10020529 C275.890529,2.99906384 276.261486,2.89792239 276.641205,2.80411003 C276.874878,2.74401149 277.120235,2.69417367 277.355369,2.63700677 L277.51748,2.61795113 L277.463443,2.61355368 C278.016957,2.48016423 278.574852,2.34970642 279.14151,2.2265777 C279.543136,2.14009443 279.940381,2.04628207 280.34931,1.96273044 C281.564411,1.71793882 282.799959,1.49073701 284.064717,1.29138575 L284.07494,1.28991993 C284.079321,1.28991993 284.083703,1.28845411 284.088084,1.28845411 C285.059289,1.15359885 285.885909,1.0363334 286.604455,0.932260313 C286.71691,0.916136314 286.832286,0.900012315 286.937439,0.883888316 C287.001699,0.875093407 287.060118,0.866298499 287.122917,0.85750359 C287.340526,0.82672141 287.54353,0.79593923 287.730468,0.769554504 C287.742152,0.768088686 287.750915,0.766622868 287.762598,0.763691231 C288.703134,0.62590433 289.26541,0.537955244 289.589632,0.480788338 C289.604237,0.477856701 289.626144,0.474925065 289.639288,0.471993429 C293.675996,0.227201806 296.966409,0.0659618146 297,0.0644959965 L297,0 C271.793942,0.636165057 246.16143,2.87740094 221.371603,5.04534591 C217.548122,5.37808662 213.594661,5.72548551 209.70984,6.05822622 L208.731333,6.14324367 C200.963153,6.80725927 192.930629,7.49619378 185.236933,9.41201804 C183.230262,9.91186201 181.319982,10.5099158 179.460818,11.1534099 C179.43453,11.1636707 179.409702,11.1724656 179.383414,11.1797947 C178.13034,11.6151426 176.912318,12.0827386 175.730807,12.5825826 C175.660705,12.6104331 175.592063,12.6426811 175.523422,12.6705317 C174.353594,13.1703757 173.223199,13.6980702 172.129315,14.2580127 C172.025623,14.3107821 171.924851,14.3635516 171.824079,14.416321 C171.280789,14.6992239 170.719973,14.9630712 170.197128,15.2591664 C165.225727,18.0823321 161.115996,21.5958981 157.981851,25.7031204 C156.924479,27.0868527 155.989786,28.5248203 155.114971,29.9877067 C155.094524,30.0199547 155.075538,30.0522027 155.056552,30.0844507 C154.50742,31.0064503 153.996259,31.9431081 153.523071,32.8914924 C153.498243,32.942796 153.470494,32.9955655 153.445666,33.0483349 C152.976859,33.9952534 152.548945,34.9509668 152.157542,35.9213384 C152.145858,35.9477231 152.135635,35.9741079 152.125412,35.9990268 C151.931171,36.4783493 151.717944,36.9532744 151.542689,37.4384602 C150.150871,41.3140832 149.321331,45.4638143 149.077434,49.7703879 C148.849603,53.7764687 149.125629,58.0346703 149.89091,62.4277272 C150.596311,66.466056 151.741311,70.7418474 153.292318,75.1363701 C159.237846,91.9947441 170.118264,108.107017 178.857649,121.053122 L178.952579,121.190909 C184.798795,129.850962 191.43512,139.994424 196.194755,150.785777 C201.342872,162.461018 203.584676,173.312469 203.042846,183.960172 C202.496634,194.754456 198.938957,204.417129 192.759756,211.90746 C192.556752,211.88987 192.352288,211.87228 192.150745,211.853225 C191.741816,211.815113 166.023137,226.361892 166.023137,226.361892 C163.476097,226.760595 163.45273,226.854407 163.460032,226.915971 C163.462953,226.935027 163.465874,226.95848 163.553501,226.974604 C163.975574,227.05669 166.359043,227.005386 180.07129,225.797552 C181.94944,225.684684 183.6684,225.577679 185.330402,225.467743 C191.128423,225.083699 197.06957,224.745095 202.813554,224.416752 C217.409379,223.581235 232.500299,222.719334 247.186673,221.042438 L247.186673,221.043904 C252.968629,220.626146 252.974471,220.473701 252.977392,220.391615 C252.977392,220.363764 252.949643,220.344709 252.904369,220.327119 C253.329362,220.272884 253.754356,220.218648 254.177889,220.165879 C255.159317,220.04275 256.172875,219.915224 257.164527,219.771574 C264.122152,218.774818 269.885123,216.776908 274.787883,213.673771 C280.065981,210.33024 284.390399,205.739297 287.638459,200.032867 C290.658688,194.728072 292.630307,188.694764 293.500741,182.100049" id="Fill-10" fill="#FFC9B4"></path>
            <g id="Group-14" transform="translate(257.000000, 0.000000)">
                <mask id="mask-2" fill="white">
                    <use xlink:href="#path-1"></use>
                </mask>
                <g id="Clip-13"></g>
                <path d="M27.3742024,1.51866 C17.6395639,3.057085 7.9869012,6.19441 0.256280723,11.77581 C51.2906723,21.907585 99.7940578,45.31436 150.248763,57.404935 C153.646371,58.21766 160.792913,56.92851 163.60498,56.752985 C174.342359,56.083335 185.075347,55.32371 195.803943,54.531635 C206.534004,53.74251 217.2626,52.95191 227.982413,52.04331 C231.672793,51.73061 237.828305,49.914885 241.291787,50.743835 C174.537052,34.748935 110.588528,-1.500665 40.3337145,0.284085" id="Fill-12" fill="#F2BBA6" mask="url(#mask-2)"></path>
            </g>
            <path d="M174.889897,212.243739 C172.964436,212.348824 171.038975,212.475802 169.113514,212.588184 C147.587094,213.838988 126.073882,215.457589 104.587087,217.216303 C93.440839,217.88768 88.9515209,218.289046 91.1382107,218.416024 C83.4187555,219.252325 75.8123037,220.513345 68.3878315,223.182796 C34.1419215,235.498176 8.30963054,269.350144 9.01406752,306 C8.99645659,305.051316 100.332581,301.719245 100.288553,299.410294 C99.707393,269.188138 117.046816,241.235525 142.123304,225.33558 C152.126309,218.992532 163.359144,214.568745 175.183412,212.688891 C174.878156,212.726838 174.57877,212.764785 174.248566,212.807111 C174.788634,212.728297 175.328702,212.648024 175.868771,212.56921 C175.639829,212.602779 175.412354,212.652403 175.183412,212.688891 C177.71645,212.366338 179.320512,212.137194 180,212 C178.297611,212.068597 176.595221,212.15033 174.889897,212.243739" id="Fill-15" fill="#FFC9B4"></path>
            <path d="M193,212.354928 C192.379375,212.299866 191.7602,212.235875 191.138125,212.192718 C187.225868,211.915921 183.328111,211.973959 179.426004,212.137657 C178.754627,212.276055 177.169714,212.509696 174.665463,212.838579 C162.983793,214.755327 151.885047,219.267422 142,225.733469 C150.397288,226.837683 158.578516,227.118944 166.891701,226.958223 C167.37312,226.883815 167.900941,226.803455 168.499815,226.715654 C178.81408,224.828669 187.099713,219.660296 193,212.354928" id="Fill-17" fill="#F2BBA6"></path>
        </g>
    </g>
</svg>