<?xml version="1.0" encoding="UTF-8"?>
<svg width="100px" height="39px" viewBox="0 0 100 39" version="1.1" xmlns="http://www.w3.org/2000/svg" xmlns:xlink="http://www.w3.org/1999/xlink">
    <!-- Generator: Sketch 50.2 (55047) - http://www.bohemiancoding.com/sketch -->
    <title>Group</title>
    <desc>Created with Sketch.</desc>
    <defs>
        <polygon id="path-1" points="0 0 100 0 100 39 0 39"></polygon>
    </defs>
    <g id="layout中秋節" stroke="none" stroke-width="1" fill="none" fill-rule="evenodd">
        <g id="Group">
            <mask id="mask-2" fill="white">
                <use xlink:href="#path-1"></use>
            </mask>
            <g id="Clip-2"></g>
            <path d="M75.3919238,27.2171489 C69.068318,29.4768602 62.6112986,31.4328948 55.9055079,31.842759 C58.9389127,27.6299903 61.5901326,23.1582033 64.7308702,19.0158956 C68.785441,13.6707902 78.6540377,3.79931545 86.5354733,7.02563136 C101.759675,13.2589412 81.7757161,24.9365971 75.3919238,27.2171489 M24.6074713,27.2171489 C18.224682,24.9365971 -1.75927638,13.2589412 13.4649248,7.02563136 C21.3463605,3.79931545 31.2149572,13.6707902 35.269528,19.0158956 C38.4102656,23.1582033 41.0614854,27.6299903 44.0948902,31.842759 C37.3890995,31.4328948 30.9320801,29.4768602 24.6074713,27.2171489 M98.0933073,6.5234733 C91.153792,-3.29441145 79.2067513,-0.570253598 70.1938075,5.15891336 C61.0604905,10.9654881 56.0499558,20.8260463 50.0001991,29.5294578 C43.9494393,20.8260463 38.9389046,10.9654881 29.8065907,5.15891336 C20.7936469,-0.570253598 8.84660617,-3.29441145 1.90709085,6.5234733 C-4.33726921,15.3588749 6.17632722,24.7212447 12.9844351,28.8020233 C23.4448667,35.069075 37.4382519,38.9106833 49.6330608,38.9900759 C49.6661634,38.9910683 49.6962567,39 49.7303625,39 C49.8196393,39 49.9109223,38.9960304 50.0001991,38.9960304 C50.0894759,38.9960304 50.1807589,39 50.2700357,39 C50.3041414,39 50.3332316,38.9910683 50.3673374,38.9900759 C62.5621462,38.9106833 76.5555314,35.069075 87.015963,28.8020233 C93.8240709,24.7212447 104.336664,15.3588749 98.0933073,6.5234733" id="Fill-1" fill="#F8CBBF" mask="url(#mask-2)"></path>
        </g>
    </g>
</svg>