<?xml version="1.0" encoding="UTF-8"?>
<svg width="255px" height="134px" viewBox="0 0 255 134" version="1.1" xmlns="http://www.w3.org/2000/svg" xmlns:xlink="http://www.w3.org/1999/xlink">
    <!-- Generator: Sketch 52.3 (67297) - http://www.bohemiancoding.com/sketch -->
    <title>Group 8</title>
    <desc>Created with Sketch.</desc>
    <defs>
        <polygon id="path-1" points="0 0.0795762178 246.430416 0.0795762178 246.430416 126.815704 0 126.815704"></polygon>
    </defs>
    <g id="Page-1" stroke="none" stroke-width="1" fill="none" fill-rule="evenodd">
        <g id="Group-8">
            <g id="Group-3">
                <mask id="mask-2" fill="white">
                    <use xlink:href="#path-1"></use>
                </mask>
                <g id="Clip-2"></g>
                <path d="M246.430416,44.3647982 C185.526264,37.5327618 46.2275915,84.204085 -0.000614056306,126.815704 C20.306228,68.9430186 129.151802,-6.35808143 232.114716,0.518768561 L234.33146,24.1884951 L246.430416,44.3647982 Z" id="Fill-1" fill="#FFFFFF" opacity="0.503231957" mask="url(#mask-2)"></path>
            </g>
            <polygon id="Fill-4" fill="#FFFFFF" points="226.594751 17.8408436 209 17.806095 223.255468 28.1795968 217.784165 45 232.001016 34.5733532 246.213803 45 240.746565 28.1795968 255 17.808139 237.405249 17.8408436 232.001016 1"></polygon>
            <path d="M154.421509,130.428064 C97.0091436,122.786112 34.3317815,122.330726 0,134 C28.7337643,103.546041 98.3780018,81.8603017 168.710755,86.6682865 C168.710755,96.3208497 168.430854,102.669829 167.303078,107.841716 C172.627324,111.964589 175.399772,118.222085 183,130.428064 C174.316944,129.273334 165.51539,128.281243 156.705664,127.472119 C155.988545,128.411353 155.228523,129.39328 154.421509,130.428064" id="Fill-5" fill="#FFFFFF" opacity="0.50062779"></path>
            <polygon id="Fill-7" fill="#FFFFFF" points="169 87 163.595528 103.839582 146 103.806876 160.254065 114.180859 154.784553 131 169 120.570825 183.215447 131 177.747967 114.180859 192 103.806876 174.406504 103.839582"></polygon>
        </g>
    </g>
</svg>