<?xml version="1.0" encoding="UTF-8"?>
<svg width="78px" height="74px" viewBox="0 0 78 74" version="1.1" xmlns="http://www.w3.org/2000/svg" xmlns:xlink="http://www.w3.org/1999/xlink">
    <!-- Generator: Sketch 52.3 (67297) - http://www.bohemiancoding.com/sketch -->
    <title>Fill 1</title>
    <desc>Created with Sketch.</desc>
    <g id="layoute感恩" stroke="none" stroke-width="1" fill="none" fill-rule="evenodd" opacity="0.51484375">
        <g id="layoutB" transform="translate(-257.000000, -1201.000000)" fill="#D6B78B">
            <polygon id="Fill-1" transform="translate(295.824633, 1237.927053) scale(-1, 1) rotate(-48.000000) translate(-295.824633, -1237.927053) " points="308.074834 1201.79699 306.325036 1198.28901 304.574592 1201.79699 302.824794 1198.28901 301.074351 1201.79699 299.324552 1198.28901 297.574754 1201.79699 295.824955 1198.28901 294.074512 1201.79699 292.324713 1198.28901 290.574915 1201.79699 288.824472 1198.28901 287.074673 1201.79699 285.324875 1198.28901 283.575076 1201.79699 281.824633 1198.28901 281.824633 1214.69691 281.824633 1235.46541 281.824633 1277.56509 283.575076 1274.05712 285.324875 1277.56509 287.074673 1274.05712 288.824472 1277.56509 290.574915 1274.05712 292.324713 1277.56509 294.074512 1274.05712 295.824955 1277.56509 297.574754 1274.05712 299.324552 1277.56509 301.074351 1274.05712 302.824794 1277.56509 304.574592 1274.05712 306.325036 1277.56509 308.074834 1274.05712 309.824633 1277.56509 309.824633 1235.46541 309.824633 1214.69691 309.824633 1198.28901"></polygon>
        </g>
    </g>
</svg>