<?xml version="1.0" encoding="UTF-8"?>
<svg width="497px" height="73px" viewBox="0 0 497 73" version="1.1" xmlns="http://www.w3.org/2000/svg" xmlns:xlink="http://www.w3.org/1999/xlink">
    <!-- Generator: Sketch 52.3 (67297) - http://www.bohemiancoding.com/sketch -->
    <title>Group 7</title>
    <desc>Created with Sketch.</desc>
    <defs>
        <path d="M10.0473079,5 L491.937958,5 C493.042527,5 493.937958,5.8954305 493.937958,7 C493.937958,7.23788691 493.895518,7.47386601 493.812633,7.69684629 L486.011704,28.6831139 C484.25715,33.4032629 484.25715,38.5967371 486.011704,43.3168861 L493.812633,64.3031537 C494.19749,65.338508 493.670158,66.4898171 492.634804,66.8746747 C492.411824,66.95756 492.175845,67 491.937958,67 L10.0473079,67 C8.94273844,67 8.04730794,66.1045695 8.04730794,65 C8.04730794,64.7262511 8.10350566,64.4554165 8.21242112,64.2042674 L16.8203395,44.3551922 C19.131924,39.024889 19.131924,32.975111 16.8203395,27.6448078 L8.21242112,7.79573259 C7.77295014,6.78235258 8.23819534,5.60458415 9.25157535,5.16511318 C9.50272446,5.05619773 9.77355906,5 10.0473079,5 Z" id="path-1"></path>
        <filter x="-1.2%" y="-8.1%" width="102.8%" height="122.6%" filterUnits="objectBoundingBox" id="filter-2">
            <feOffset dx="0" dy="2" in="SourceAlpha" result="shadowOffsetOuter1"></feOffset>
            <feGaussianBlur stdDeviation="2" in="shadowOffsetOuter1" result="shadowBlurOuter1"></feGaussianBlur>
            <feComposite in="shadowBlurOuter1" in2="SourceAlpha" operator="out" result="shadowBlurOuter1"></feComposite>
            <feColorMatrix values="0 0 0 0 0.577380952   0 0 0 0 0.577380952   0 0 0 0 0.577380952  0 0 0 0.5 0" type="matrix" in="shadowBlurOuter1"></feColorMatrix>
        </filter>
    </defs>
    <g id="Page-1" stroke="none" stroke-width="1" fill="none" fill-rule="evenodd">
        <g id="Group-7" transform="translate(-1.000000, 0.000000)">
            <g id="Rectangle-Copy" opacity="0.656738281" fill-rule="nonzero">
                <use fill="black" fill-opacity="1" filter="url(#filter-2)" xlink:href="#path-1"></use>
                <path stroke="#E46C54" stroke-width="1" d="M10.0473079,5.5 C9.84199628,5.5 9.63887033,5.54214829 9.4505085,5.62383488 C8.69047349,5.95343811 8.34153959,6.83676443 8.67114282,7.59679944 L17.2790612,27.4458747 C19.6456834,32.9030898 19.6456834,39.0969102 17.2790612,44.5541253 L8.67114282,64.4032006 C8.58945623,64.5915624 8.54730794,64.7946883 8.54730794,65 C8.54730794,65.8284271 9.21888081,66.5 10.0473079,66.5 L491.937958,66.5 C492.116373,66.5 492.293357,66.46817 492.460593,66.406006 C493.237108,66.1173628 493.632607,65.253881 493.343964,64.4773653 L485.543036,43.4910976 C483.746706,38.6585642 483.746706,33.3414358 485.543036,28.5089024 L493.343964,7.52263472 C493.406128,7.3553995 493.437958,7.17841518 493.437958,7 C493.437958,6.17157288 492.766385,5.5 491.937958,5.5 L10.0473079,5.5 Z" stroke-linejoin="square" fill="#FFFFFF" fill-rule="evenodd"></path>
            </g>
            <path d="M3.04730794,0.5 C2.84199628,0.5 2.63887033,0.542148294 2.4505085,0.623834884 C1.69047349,0.953438114 1.34153959,1.83676443 1.67114282,2.59679944 L10.2790612,22.4458747 C12.6456834,27.9030898 12.6456834,34.0969102 10.2790612,39.5541253 L1.67114282,59.4032006 C1.58945623,59.5915624 1.54730794,59.7946883 1.54730794,60 C1.54730794,60.8284271 2.21888081,61.5 3.04730794,61.5 L484.937958,61.5 C485.116373,61.5 485.293357,61.46817 485.460593,61.406006 C486.237108,61.1173628 486.632607,60.253881 486.343964,59.4773653 L478.543036,38.4910976 C476.746706,33.6585642 476.746706,28.3414358 478.543036,23.5089024 L486.343964,2.52263472 C486.406128,2.3553995 486.437958,2.17841518 486.437958,2 C486.437958,1.17157288 485.766385,0.5 484.937958,0.5 L3.04730794,0.5 Z" id="Rectangle" stroke="#EC9D8E" fill="#FFFFFF" fill-rule="nonzero"></path>
            <path d="M80.88,16.28 L111.192,16.28 L111.192,19.592 L97.728,19.592 L97.728,28.304 L109.536,28.304 L109.536,31.652 L97.728,31.652 L97.728,42.992 L111.912,42.992 L111.912,46.304 L80.088,46.304 L80.088,42.992 L94.272,42.992 L94.272,31.652 L82.536,31.652 L82.536,28.304 L94.272,28.304 L94.272,19.592 L80.88,19.592 L80.88,16.28 Z M104.46,32.984 C106.62,35.648 108.312,38.024 109.5,40.04 L106.764,41.948 C105.54,39.752 103.884,37.304 101.796,34.64 L104.46,32.984 Z M145.424951,20.708 L148.844951,20.708 L148.844951,46.952 L145.424951,46.952 L145.424951,44.828 L123.212951,44.828 L123.212951,46.916 L119.792951,46.916 L119.792951,20.528 L123.212951,20.528 L123.212951,41.552 L132.608951,41.552 L132.608951,14.768 L136.064951,14.768 L136.064951,41.552 L145.424951,41.552 L145.424951,20.708 Z M159.821902,28.736 C158.885902,29.96 157.913902,31.184 156.833902,32.408 L155.717902,28.736 C159.029902,24.56 161.513902,19.664 163.133902,14.12 L166.337902,15.632 C165.509902,18.296 164.465902,20.888 163.169902,23.372 L163.169902,47.78 L159.821902,47.78 L159.821902,28.736 Z M165.689902,18.836 L176.237902,18.836 C175.769902,17.612 175.229902,16.424 174.617902,15.272 L177.893902,14.372 C178.649902,15.992 179.225902,17.468 179.621902,18.836 L189.341902,18.836 L189.341902,22.04 L165.689902,22.04 L165.689902,18.836 Z M168.965902,24.236 L186.281902,24.236 L186.281902,27.296 L168.965902,27.296 L168.965902,24.236 Z M168.965902,29.312 L186.281902,29.312 L186.281902,32.408 L168.965902,32.408 L168.965902,29.312 Z M187.037902,34.676 L187.037902,47.708 L183.725902,47.708 L183.725902,45.836 L171.485902,45.836 L171.485902,47.708 L168.173902,47.708 L168.173902,34.676 L187.037902,34.676 Z M171.485902,42.632 L183.725902,42.632 L183.725902,37.844 L171.485902,37.844 L171.485902,42.632 Z M201.146853,27.548 L201.146853,33.056 L209.426853,33.056 L209.426853,27.548 L201.146853,27.548 Z M200.966853,36.224 C200.534853,40.76 199.202853,44.504 196.970853,47.456 L194.342853,45.116 C196.502853,42.02 197.618853,38.096 197.690853,33.344 L197.690853,15.704 L225.302853,15.704 L225.302853,42.812 C225.302853,45.512 223.898853,46.88 221.162853,46.88 L217.022853,46.88 L216.122853,43.532 C217.526853,43.64 218.822853,43.712 220.046853,43.712 C221.198853,43.712 221.810853,42.992 221.810853,41.588 L221.810853,36.224 L212.882853,36.224 L212.882853,46.484 L209.426853,46.484 L209.426853,36.224 L200.966853,36.224 Z M221.810853,33.056 L221.810853,27.548 L212.882853,27.548 L212.882853,33.056 L221.810853,33.056 Z M221.810853,24.416 L221.810853,19.016 L212.882853,19.016 L212.882853,24.416 L221.810853,24.416 Z M209.426853,19.016 L201.146853,19.016 L201.146853,24.416 L209.426853,24.416 L209.426853,19.016 Z M245.855804,14.588 L249.311804,14.588 L249.311804,18.692 L260.759804,18.692 L260.759804,21.968 L249.311804,21.968 L249.311804,26.612 L265.439804,26.612 L265.439804,29.924 L249.311804,29.924 L249.311804,33.092 C253.451804,34.964 257.663804,37.088 261.983804,39.5 L260.039804,42.416 C255.791804,39.824 252.191804,37.844 249.311804,36.476 L249.311804,47.672 L245.855804,47.672 L245.855804,29.924 L233.219804,29.924 L233.219804,26.612 L245.855804,26.612 L245.855804,14.588 Z M278.864755,14.408 L281.924755,15.848 C281.060755,18.512 279.980755,21.068 278.612755,23.48 L278.612755,47.744 L275.228755,47.744 L275.228755,28.628 C274.220755,29.924 273.140755,31.184 271.988755,32.408 L270.908755,28.844 C274.508755,24.74 277.136755,19.916 278.864755,14.408 Z M303.344755,15.632 L303.344755,47.672 L300.248755,47.672 L300.248755,45.62 L285.344755,45.62 L285.344755,47.672 L282.284755,47.672 L282.284755,15.632 L303.344755,15.632 Z M285.344755,42.596 L300.248755,42.596 L300.248755,18.584 L285.344755,18.584 L285.344755,42.596 Z M286.604755,23.804 L291.392755,23.804 L291.392755,20.096 L294.308755,20.096 L294.308755,23.804 L299.060755,23.804 L299.060755,26.72 L294.308755,26.72 L294.308755,30.356 L297.872755,30.356 L297.872755,40.832 L287.936755,40.832 L287.936755,30.356 L291.392755,30.356 L291.392755,26.72 L286.604755,26.72 L286.604755,23.804 Z M295.208755,38.24 L295.208755,32.948 L290.564755,32.948 L290.564755,38.24 L295.208755,38.24 Z M327.641706,14.552 C327.641706,17.72 327.533706,20.384 327.389706,22.616 C329.477706,32.192 334.661706,39.5 342.869706,44.54 L340.601706,47.528 C333.689706,42.92 328.865706,36.728 326.129706,29.024 C323.753706,36.512 318.785706,42.704 311.225706,47.6 L309.137706,44.54 C318.857706,38.636 323.861706,30.536 324.149706,20.204 C324.149706,17.792 324.185706,15.92 324.185706,14.552 L327.641706,14.552 Z M353.522657,21.932 C352.190657,22.724 350.750657,23.516 349.238657,24.236 L348.230657,20.924 C352.478657,19.052 355.646657,16.856 357.698657,14.372 L360.506657,15.74 C359.570657,17.072 358.346657,18.332 356.870657,19.556 L356.870657,27.512 L353.522657,27.512 L353.522657,21.932 Z M378.650657,17.252 L379.154657,20.348 L369.650657,21.932 L369.938657,22.22 C371.522657,23.84 373.286657,24.668 375.194657,24.704 C375.554657,24.704 375.842657,24.524 376.058657,24.236 C376.346657,23.66 376.598657,22.796 376.814657,21.572 L380.090657,22.94 C379.514657,24.956 378.938657,26.324 378.362657,26.972 C377.786657,27.548 377.030657,27.872 376.022657,27.872 C373.070657,27.872 370.442657,26.864 368.138657,24.848 C367.418657,24.2 366.734657,23.408 366.086657,22.508 L358.490657,23.768 L357.986657,20.672 L364.430657,19.592 C363.710657,18.152 363.098657,16.568 362.594657,14.768 L366.194657,14.444 C366.626657,16.208 367.130657,17.756 367.778657,19.052 L372.926657,18.188 C371.990657,17.54 370.802657,16.82 369.290657,16.064 L371.234657,14.156 C372.782657,14.912 374.078657,15.668 375.122657,16.424 L373.394657,18.116 L378.650657,17.252 Z M352.478657,28.664 L376.274657,28.664 L376.274657,42.812 L369.254657,42.812 C373.214657,43.352 376.994657,44.108 380.594657,45.044 L379.514657,47.744 C375.626657,46.592 371.522657,45.728 367.274657,45.08 L368.426657,42.812 L359.822657,42.812 L361.334657,44.792 C358.634657,46.016 354.746657,46.988 349.670657,47.744 L348.158657,45.152 C352.838657,44.504 356.438657,43.748 358.958657,42.812 L352.478657,42.812 L352.478657,28.664 Z M372.962657,40.292 L372.962657,38.708 L355.826657,38.708 L355.826657,40.292 L372.962657,40.292 Z M355.826657,36.584 L372.962657,36.584 L372.962657,34.964 L355.826657,34.964 L355.826657,36.584 Z M355.826657,32.876 L372.962657,32.876 L372.962657,31.184 L355.826657,31.184 L355.826657,32.876 Z M386.351608,17.54 L393.695608,17.54 L393.695608,14.48 L396.935608,14.48 L396.935608,17.54 L403.271608,17.54 L403.271608,20.492 L396.935608,20.492 L396.935608,22.94 L402.443608,22.94 L402.443608,25.82 L387.611608,25.82 L387.611608,22.94 L393.695608,22.94 L393.695608,20.492 L386.351608,20.492 L386.351608,17.54 Z M388.799608,28.052 L401.327608,28.052 L401.327608,31.04 L388.799608,31.04 L388.799608,28.052 Z M386.603608,33.2 L403.667608,33.2 L403.667608,36.152 L396.683608,36.152 L396.683608,47.564 L393.443608,47.564 L393.443608,36.152 L386.603608,36.152 L386.603608,33.2 Z M389.123608,37.628 L391.823608,38.168 C391.103608,41.012 390.095608,43.46 388.763608,45.548 L386.243608,43.928 C387.611608,41.948 388.547608,39.86 389.123608,37.628 Z M400.823608,37.34 C401.651608,38.96 402.407608,40.688 403.055608,42.56 L400.391608,43.748 C399.707608,41.66 398.951608,39.788 398.123608,38.204 L400.823608,37.34 Z M406.367608,14.624 L409.499608,15.128 C409.283608,16.856 409.067608,18.44 408.779608,19.88 L418.103608,19.88 L418.103608,21.932 C417.635608,24.956 417.023608,27.98 416.303608,31.004 L413.171608,30.104 C413.819608,28.052 414.359608,25.676 414.827608,22.94 L408.059608,22.94 C407.231608,25.892 406.187608,28.268 404.891608,30.068 L402.299608,28.196 C404.387608,24.956 405.755608,20.42 406.367608,14.624 Z M408.851608,25.46 L411.947608,25.46 C411.947608,27.836 411.839608,30.032 411.623608,32.048 C413.135608,37.484 415.727608,41.84 419.435608,45.116 L417.167608,47.708 C414.359608,44.9 412.163608,41.516 410.615608,37.592 C409.499608,41.732 407.015608,45.152 403.127608,47.888 L401.039608,45.404 C404.387608,43.028 406.583608,40.148 407.627608,36.692 C408.419608,33.812 408.851608,30.068 408.851608,25.46 Z" id="玉山信用卡個人貸款" fill="#666666"></path>
            <circle id="Oval" fill="#F5E9D7" fill-rule="nonzero" cx="43" cy="31" r="5"></circle>
            <circle id="Oval-Copy-2" fill="#F5E9D7" fill-rule="nonzero" cx="444" cy="31" r="5"></circle>
        </g>
    </g>
</svg>