<svg xmlns="http://www.w3.org/2000/svg" viewBox="0 0 105.78 68.43"><defs><style>.cls-1{fill:#b2c146;}.cls-2{fill:#73918b;}.cls-3{fill:#80aaa2;}.cls-4{fill:#88bcb2;}.cls-5{fill:#bad6d1;}.cls-6{fill:#5f7773;}.cls-7{fill:#d6e05a;}</style></defs><title>tree</title><g id="圖層_2" data-name="圖層 2"><g id="燈籠"><path class="cls-1" d="M86.36,36.74a38.09,38.09,0,0,1-2-19.15A28.08,28.08,0,0,1,93.78.74,2.71,2.71,0,0,1,95.14,0a2.69,2.69,0,0,1,1.61.48,16.74,16.74,0,0,1,6.91,8.57,36.15,36.15,0,0,1,2,10.76,40.9,40.9,0,0,1-.19,8.71,26.47,26.47,0,0,1-7.71,14.74c-2.07,2-4.16,4.65-6.63,2.22C88.79,43.2,87.41,39.69,86.36,36.74Z"/><path class="cls-2" d="M94.25,31.24c3.93-3.17,6-7.9,7.64-12.5a24.58,24.58,0,0,1-5.9,13,5,5,0,0,1-3.1,2C92,31.31,90.77,29,89.67,26.66,89,25.13,87,20.34,86.74,17.89c1,1.68,2.71,6.47,3.73,8.21C90.73,26.55,94.06,31.39,94.25,31.24Z"/><path class="cls-3" d="M94.78,23.47c2.55-2.06,3.87-5.14,5-8.12a15.88,15.88,0,0,1-3.83,8.45,3.24,3.24,0,0,1-2,1.29c-.57-1.58-1.38-3.07-2.09-4.6A23.85,23.85,0,0,1,89.9,14.8c.66,1.09,1.76,4.2,2.42,5.33A31.26,31.26,0,0,0,94.78,23.47Z"/><path class="cls-4" d="M94.58,16c1.83-1.47,2.77-3.67,3.55-5.81a11.4,11.4,0,0,1-2.74,6A2.39,2.39,0,0,1,94,17.2c-.41-1.14-1-2.21-1.5-3.3a17.4,17.4,0,0,1-1.37-4.08c.47.78,1.27,3,1.74,3.82A20.65,20.65,0,0,0,94.58,16Z"/><path class="cls-5" d="M94.59,9.29a8.36,8.36,0,0,0,2.33-3.82,7.41,7.41,0,0,1-1.8,4,1.54,1.54,0,0,1-1,.61,22,22,0,0,0-1-2.16,11.08,11.08,0,0,1-.89-2.68c.31.52.82,2,1.14,2.51A14,14,0,0,0,94.59,9.29Z"/><path class="cls-6" d="M95.4,18.33c-.05-4.39,0-8.82-.94-13.12q-.58,10.7-1.5,21.34c-.4,4.58-.84,9.16-1,13.76-.14,5-1.35,13.33-.75,18.31.41,3.34,2.9,2.41,5.9,1.14-.05-5.21,0-11.26-.49-16.49s-.82-10.7-1-16.06Q95.45,22.77,95.4,18.33Z"/><path class="cls-6" d="M94.25,39.56c3.93-3.18,6-7.91,7.64-12.51a24.54,24.54,0,0,1-5.9,13,5.05,5.05,0,0,1-3.1,2C92,39.62,90.77,37.32,89.67,35,89,33.45,87,28.66,86.74,26.21c1,1.67,2.71,6.46,3.73,8.21C90.73,34.87,94.06,39.71,94.25,39.56Z"/><path class="cls-7" d="M73.85,46.9a28.82,28.82,0,0,1-1.54-14.49,21.26,21.26,0,0,1,7.15-12.76,2.08,2.08,0,0,1,1-.55,2,2,0,0,1,1.22.37A12.63,12.63,0,0,1,86.94,26a27.49,27.49,0,0,1,1.5,8.14,31.53,31.53,0,0,1-.15,6.59,20.05,20.05,0,0,1-5.83,11.16c-1.57,1.53-3.15,3.51-5,1.68S74.64,49.12,73.85,46.9Z"/><path class="cls-2" d="M79.82,42.73c3-2.4,4.5-6,5.78-9.46a18.49,18.49,0,0,1-4.47,9.85,3.83,3.83,0,0,1-2.34,1.51c-.67-1.85-1.6-3.59-2.44-5.37a27.83,27.83,0,0,1-2.22-6.63c.77,1.27,2.05,4.9,2.83,6.21A33.68,33.68,0,0,0,79.82,42.73Z"/><path class="cls-3" d="M80.22,36.85C82.15,35.29,83.15,33,84,30.71a12,12,0,0,1-2.9,6.39,2.45,2.45,0,0,1-1.52,1c-.43-1.19-1-2.33-1.58-3.48a18,18,0,0,1-1.44-4.31c.49.83,1.33,3.18,1.83,4A22.34,22.34,0,0,0,80.22,36.85Z"/><path class="cls-4" d="M80.07,31.23a9.74,9.74,0,0,0,2.69-4.4,8.62,8.62,0,0,1-2.08,4.58,1.84,1.84,0,0,1-1.09.7c-.31-.86-.75-1.67-1.13-2.5a12.77,12.77,0,0,1-1-3.08c.36.59,1,2.28,1.32,2.89A15.5,15.5,0,0,0,80.07,31.23Z"/><path class="cls-5" d="M80.08,26.12a6.37,6.37,0,0,0,1.76-2.88,5.72,5.72,0,0,1-1.36,3,1.15,1.15,0,0,1-.72.46c-.2-.56-.49-1.09-.74-1.64a8.24,8.24,0,0,1-.68-2c.23.39.63,1.49.86,1.9A9.52,9.52,0,0,0,80.08,26.12Z"/><path class="cls-6" d="M80.69,33A50.69,50.69,0,0,0,80,23c-.3,5.39-.67,10.77-1.14,16.15-.3,3.46-.63,6.92-.73,10.41-.1,3.78-1,10.08-.56,13.85.31,2.53,2.19,1.83,4.46.86,0-3.94,0-8.51-.37-12.47s-.62-8.1-.78-12.16Q80.72,36.34,80.69,33Z"/><path class="cls-6" d="M79.82,49c3-2.4,4.5-6,5.78-9.45a18.5,18.5,0,0,1-4.47,9.84,3.79,3.79,0,0,1-2.34,1.51c-.67-1.85-1.6-3.59-2.44-5.36a28.14,28.14,0,0,1-2.22-6.63c.77,1.26,2.05,4.89,2.83,6.21A34.38,34.38,0,0,0,79.82,49Z"/><path class="cls-1" d="M14.4,40a38.09,38.09,0,0,1-2-19.15A28.1,28.1,0,0,1,21.82,4a2.65,2.65,0,0,1,1.36-.72,2.69,2.69,0,0,1,1.61.48A16.74,16.74,0,0,1,31.7,12.3a36.15,36.15,0,0,1,2,10.76,40.9,40.9,0,0,1-.19,8.71,26.47,26.47,0,0,1-7.71,14.74c-2.07,2-4.16,4.65-6.63,2.22C16.83,46.44,15.45,42.92,14.4,40Z"/><path class="cls-2" d="M22.29,34.48c3.93-3.18,5.95-7.91,7.64-12.5A24.58,24.58,0,0,1,24,35a5.08,5.08,0,0,1-3.1,2c-.88-2.44-2.12-4.74-3.22-7.09C17,28.37,15,23.58,14.78,21.13c1,1.68,2.71,6.47,3.73,8.21C18.77,29.79,22.1,34.63,22.29,34.48Z"/><path class="cls-3" d="M22.82,26.71c2.55-2.06,3.87-5.14,5-8.12A15.88,15.88,0,0,1,24,27a3.28,3.28,0,0,1-2,1.29c-.57-1.58-1.38-3.07-2.09-4.6A23.42,23.42,0,0,1,17.94,18c.66,1.09,1.76,4.2,2.42,5.33A31.26,31.26,0,0,0,22.82,26.71Z"/><path class="cls-4" d="M22.62,19.27a12.75,12.75,0,0,0,3.55-5.81,11.4,11.4,0,0,1-2.74,6.05,2.33,2.33,0,0,1-1.44.92c-.41-1.13-1-2.2-1.5-3.29a17.4,17.4,0,0,1-1.37-4.08c.47.78,1.26,3,1.74,3.82A20.65,20.65,0,0,0,22.62,19.27Z"/><path class="cls-5" d="M22.63,12.52A8.36,8.36,0,0,0,25,8.71a7.44,7.44,0,0,1-1.8,4,1.58,1.58,0,0,1-.95.61,21,21,0,0,0-1-2.16,11.08,11.08,0,0,1-.89-2.68c.3.51.82,2,1.14,2.51A13.77,13.77,0,0,0,22.63,12.52Z"/><path class="cls-6" d="M23.44,21.57c-.05-4.39,0-8.82-.94-13.12q-.59,10.7-1.5,21.34c-.4,4.58-.84,9.16-1,13.76-.14,5-1.35,13.33-.75,18.31.41,3.34,2.9,2.41,5.9,1.14-.05-5.22,0-11.26-.49-16.49s-.82-10.7-1-16.06Q23.49,26,23.44,21.57Z"/><path class="cls-6" d="M22.29,42.79c3.93-3.17,5.95-7.9,7.64-12.5a24.54,24.54,0,0,1-5.9,13,5.05,5.05,0,0,1-3.1,2c-.88-2.44-2.12-4.74-3.22-7.09C17,36.68,15,31.9,14.78,29.45c1,1.67,2.71,6.46,3.73,8.2C18.77,38.11,22.1,43,22.29,42.79Z"/><path class="cls-7" d="M1.89,50.14A28.82,28.82,0,0,1,.35,35.65,21.23,21.23,0,0,1,7.5,22.89a2.08,2.08,0,0,1,1-.55,2,2,0,0,1,1.22.37A12.63,12.63,0,0,1,15,29.19a27.16,27.16,0,0,1,1.49,8.14,30.88,30.88,0,0,1-.14,6.59A20.05,20.05,0,0,1,10.5,55.07c-1.57,1.54-3.15,3.52-5,1.68S2.68,52.36,1.89,50.14Z"/><path class="cls-2" d="M7.86,46c3-2.4,4.5-6,5.78-9.46a18.56,18.56,0,0,1-4.47,9.85,3.77,3.77,0,0,1-2.34,1.5C6.16,46,5.23,44.28,4.39,42.5a27.83,27.83,0,0,1-2.22-6.63c.77,1.27,2.05,4.9,2.83,6.21A33.68,33.68,0,0,0,7.86,46Z"/><path class="cls-3" d="M8.26,40.09C10.19,38.53,11.18,36.21,12,34a12,12,0,0,1-2.9,6.39,2.45,2.45,0,0,1-1.52,1c-.43-1.2-1-2.33-1.58-3.48a18,18,0,0,1-1.44-4.31c.49.83,1.33,3.18,1.83,4A22.34,22.34,0,0,0,8.26,40.09Z"/><path class="cls-4" d="M8.11,34.47a9.8,9.8,0,0,0,2.69-4.4,8.56,8.56,0,0,1-2.08,4.57,1.81,1.81,0,0,1-1.09.71c-.31-.86-.75-1.67-1.13-2.5a12.92,12.92,0,0,1-1-3.08c.36.59,1,2.27,1.32,2.89A15.5,15.5,0,0,0,8.11,34.47Z"/><path class="cls-5" d="M8.12,29.36a6.37,6.37,0,0,0,1.76-2.88,5.72,5.72,0,0,1-1.36,3,1.19,1.19,0,0,1-.72.46c-.2-.56-.49-1.1-.74-1.64a8.24,8.24,0,0,1-.68-2c.23.39.63,1.49.86,1.89A9,9,0,0,0,8.12,29.36Z"/><path class="cls-6" d="M8.73,36.2A50.59,50.59,0,0,0,8,26.28q-.45,8.09-1.14,16.15c-.3,3.46-.63,6.92-.73,10.4-.1,3.78-1,10.09-.56,13.86.31,2.53,2.19,1.82,4.46.86,0-3.94,0-8.52-.37-12.48S9.06,47,8.9,42.92Q8.77,39.56,8.73,36.2Z"/><path class="cls-6" d="M7.86,52.26c3-2.4,4.5-6,5.78-9.46a18.49,18.49,0,0,1-4.47,9.85,3.83,3.83,0,0,1-2.34,1.51c-.67-1.85-1.6-3.59-2.44-5.37a27.9,27.9,0,0,1-2.22-6.62c.77,1.26,2.05,4.89,2.83,6.2A33.68,33.68,0,0,0,7.86,52.26Z"/></g></g></svg>